<svg width="175" height="175" viewBox="0 0 175 175" fill="none" xmlns="http://www.w3.org/2000/svg">
<path opacity="0.2" fill-rule="evenodd" clip-rule="evenodd" d="M96.2002 120.944H42.5492V112.208H96.2002V120.944Z" fill="#007558"/>
<path opacity="0.2" fill-rule="evenodd" clip-rule="evenodd" d="M96.2002 96.1931H42.5492V87.4575H96.2002V96.1931Z" fill="#007558"/>
<path opacity="0.2" fill-rule="evenodd" clip-rule="evenodd" d="M96.2002 71.4425H42.5492V62.7069H96.2002V71.4425Z" fill="#007558"/>
<path fill-rule="evenodd" clip-rule="evenodd" d="M37.368 141.327C37.368 140.757 37.83 140.295 38.3998 140.295H71.4494C72.0192 140.295 72.4811 140.757 72.4811 141.327V149.553C72.4811 150.123 72.0192 150.585 71.4494 150.585H38.3998C37.83 150.585 37.368 150.123 37.368 149.553V141.327ZM39.4315 142.359V148.521H70.4177V142.359H39.4315Z" fill="#007558"/>
<path fill-rule="evenodd" clip-rule="evenodd" d="M37.368 58.7756C37.368 58.2058 37.83 57.7439 38.3998 57.7439H100.277C100.847 57.7439 101.309 58.2058 101.309 58.7756V75.3004C101.309 75.8702 100.847 76.3321 100.277 76.3321H38.3998C37.83 76.3321 37.368 75.8702 37.368 75.3004V58.7756ZM39.4315 59.8074V74.2687H99.245V59.8074H39.4315Z" fill="#007558"/>
<path fill-rule="evenodd" clip-rule="evenodd" d="M37.368 83.5263C37.368 82.9564 37.83 82.4945 38.3998 82.4945H100.277C100.847 82.4945 101.309 82.9564 101.309 83.5263V100.051C101.309 100.621 100.847 101.083 100.277 101.083H38.3998C37.83 101.083 37.368 100.621 37.368 100.051V83.5263ZM39.4315 84.558V99.0193H99.245V84.558H39.4315Z" fill="#007558"/>
<path fill-rule="evenodd" clip-rule="evenodd" d="M37.368 108.35C37.368 107.78 37.83 107.318 38.3998 107.318H100.277C100.847 107.318 101.309 107.78 101.309 108.35V124.875C101.309 125.445 100.847 125.907 100.277 125.907H38.3998C37.83 125.907 37.368 125.445 37.368 124.875V108.35ZM39.4315 109.382V123.843H99.245V109.382H39.4315Z" fill="#007558"/>
<path fill-rule="evenodd" clip-rule="evenodd" d="M20.9169 17.5C20.9169 16.9302 21.3788 16.4683 21.9486 16.4683H154.001C154.571 16.4683 155.033 16.9302 155.033 17.5V157.852C155.033 158.421 154.571 158.883 154.001 158.883H21.9486C21.3788 158.883 20.9169 158.421 20.9169 157.852V17.5ZM22.9804 18.5318V156.82H152.97V18.5318H22.9804Z" fill="#007558"/>
<path fill-rule="evenodd" clip-rule="evenodd" d="M20.8433 133.101C20.8433 132.531 21.3052 132.069 21.875 132.069H154.001C154.57 132.069 155.032 132.531 155.032 133.101C155.032 133.671 154.57 134.132 154.001 134.132H21.875C21.3052 134.132 20.8433 133.671 20.8433 133.101Z" fill="#007558"/>
<path fill-rule="evenodd" clip-rule="evenodd" d="M53.8929 38.1741C53.8929 37.6043 54.3548 37.1423 54.9246 37.1423H151.453C152.023 37.1423 152.484 37.6043 152.484 38.1741C152.484 38.7439 152.023 39.2058 151.453 39.2058H54.9246C54.3548 39.2058 53.8929 38.7439 53.8929 38.1741Z" fill="#007558"/>
<path fill-rule="evenodd" clip-rule="evenodd" d="M47.0877 30.9789C42.9426 30.7876 39.5043 34.1048 39.5043 38.1741C39.5043 42.1236 42.6881 45.3684 46.6985 45.3684H46.9169C50.7877 45.3684 53.8928 42.2633 53.8928 38.3925C53.8928 34.4506 50.8566 31.1046 47.1009 30.9794L47.0877 30.979L47.0877 30.9789ZM47.1763 28.9173C41.8608 28.6756 37.4408 32.9276 37.4408 38.1741C37.4408 43.2513 41.5366 47.4319 46.6985 47.4319H46.9169C51.9273 47.4319 55.9563 43.4029 55.9563 38.3925C55.9563 33.4555 52.1529 29.0869 47.1763 28.9173Z" fill="#007558"/>
<path fill-rule="evenodd" clip-rule="evenodd" d="M46.6985 35.0565C46.1426 35.0565 45.692 35.5072 45.692 36.0631C45.692 36.6191 46.1426 37.0697 46.6985 37.0697C47.2544 37.0697 47.7051 36.6191 47.7051 36.0631C47.7051 35.5072 47.2544 35.0565 46.6985 35.0565ZM43.6285 36.0631C43.6285 34.3676 45.0029 32.993 46.6985 32.993C48.3941 32.993 49.7686 34.3676 49.7686 36.0631C49.7686 37.7586 48.3941 39.1332 46.6985 39.1332C45.0029 39.1332 43.6285 37.7586 43.6285 36.0631Z" fill="#007558"/>
<path fill-rule="evenodd" clip-rule="evenodd" d="M44.078 43.2826C43.764 43.2826 43.4521 43.3985 43.1215 43.6189L41.9769 41.9019C42.5199 41.54 43.2272 41.2191 44.078 41.2191H49.1009C49.9939 41.2191 50.8506 41.5222 51.5048 42.1764L50.0457 43.6355C49.8263 43.4162 49.5183 43.2826 49.1009 43.2826H44.078Z" fill="#007558"/>
<path fill-rule="evenodd" clip-rule="evenodd" d="M20.916 38.1741C20.916 37.6043 21.3779 37.1423 21.9478 37.1423H38.3997C38.9696 37.1423 39.4315 37.6043 39.4315 38.1741C39.4315 38.7439 38.9696 39.2058 38.3997 39.2058H21.9478C21.3779 39.2058 20.916 38.7439 20.916 38.1741Z" fill="#007558"/>
<path opacity="0.4" fill-rule="evenodd" clip-rule="evenodd" d="M137.476 72.2332H112.725V61.9156H137.476V72.2332Z" fill="#007558"/>
<path opacity="0.4" fill-rule="evenodd" clip-rule="evenodd" d="M137.476 96.9842H112.725V86.6666H137.476V96.9842Z" fill="#007558"/>
<path opacity="0.4" fill-rule="evenodd" clip-rule="evenodd" d="M137.476 121.735H112.725V111.417H137.476V121.735Z" fill="#007558"/>
<path opacity="0.4" fill-rule="evenodd" clip-rule="evenodd" d="M137.476 150.635H83.8248V140.318H137.476V150.635Z" fill="#007558"/>
</svg>
