<svg width="178" height="178" viewBox="0 0 178 178" fill="none" xmlns="http://www.w3.org/2000/svg">
<path opacity="0.1" d="M139.611 101.233C135.686 129.37 114.139 126.705 114.139 126.705L88.9644 126.186L63.7893 30.1507C63.7893 30.1507 69.5647 17.5631 88.9644 17.5631C101.552 17.5631 107.624 25.5599 107.624 25.5599C107.624 25.5599 125.542 16.4524 139.611 24.1531C152.939 31.4835 158.714 46.9587 158.714 46.9587C158.714 46.9587 177.077 59.5463 171.82 80.5749C166.711 101.233 146.867 101.233 139.611 101.233Z" fill="#007558"/>
<path fill-rule="evenodd" clip-rule="evenodd" d="M141.597 42.8125C141.597 42.2329 142.067 41.7631 142.647 41.7631C159.859 41.7631 173.906 55.3858 173.906 72.2081C173.906 89.0304 159.859 102.653 142.647 102.653H139.833C139.253 102.653 138.783 102.183 138.783 101.604C138.783 101.024 139.253 100.554 139.833 100.554H142.647C158.754 100.554 171.807 87.8173 171.807 72.2081C171.807 56.5989 158.754 43.8619 142.647 43.8619C142.067 43.8619 141.597 43.3921 141.597 42.8125Z" fill="#007558"/>
<path fill-rule="evenodd" clip-rule="evenodd" d="M87.7797 19.0569C73.4892 19.0569 61.5512 29.4189 59.1211 43.0703C59.0195 43.6409 58.4746 44.0211 57.904 43.9195C57.3334 43.818 56.9531 43.2731 57.0547 42.7024C59.6597 28.0688 72.4525 16.958 87.7797 16.958C99.202 16.958 109.233 23.1675 114.743 32.3504C115.041 32.8474 114.88 33.4921 114.383 33.7902C113.886 34.0884 113.242 33.9273 112.943 33.4303C107.791 24.8425 98.4226 19.0569 87.7797 19.0569Z" fill="#007558"/>
<path fill-rule="evenodd" clip-rule="evenodd" d="M117.099 76.2069C117.18 75.633 117.712 75.2339 118.285 75.3154C130.814 77.0942 140.364 88.1399 140.364 101.381C140.364 115.931 128.886 127.754 114.584 127.754H76.3768C75.7973 127.754 75.3274 127.284 75.3274 126.705C75.3274 126.125 75.7973 125.655 76.3768 125.655H114.584C127.678 125.655 138.265 114.821 138.265 101.381C138.265 89.1516 129.452 79.0206 117.99 77.3934C117.417 77.3119 117.017 76.7807 117.099 76.2069Z" fill="#007558"/>
<path fill-rule="evenodd" clip-rule="evenodd" d="M37.4907 126.779C37.4907 126.199 37.9606 125.729 38.5402 125.729H59.5688C60.1484 125.729 60.6182 126.199 60.6182 126.779C60.6182 127.358 60.1484 127.828 59.5688 127.828H38.5402C37.9606 127.828 37.4907 127.358 37.4907 126.779Z" fill="#007558"/>
<path fill-rule="evenodd" clip-rule="evenodd" d="M133.638 61.8476C134.126 61.5342 134.775 61.6753 135.088 62.1629C137.191 65.4342 138.291 69.0359 138.291 72.8744C138.291 77.5062 136.639 81.7239 133.854 85.3597C133.501 85.8198 132.843 85.9071 132.383 85.5547C131.923 85.2022 131.835 84.5435 132.188 84.0834C134.734 80.7589 136.192 76.9799 136.192 72.8744C136.192 69.4566 135.218 66.2462 133.323 63.2978C133.009 62.8103 133.15 62.161 133.638 61.8476Z" fill="#007558"/>
<path fill-rule="evenodd" clip-rule="evenodd" d="M125.246 22.537C119.213 22.537 113.609 24.1165 108.717 26.778C108.208 27.055 107.571 26.8668 107.294 26.3577C107.017 25.8486 107.205 25.2114 107.714 24.9344C112.893 22.1166 118.84 20.4381 125.246 20.4381C141.334 20.4381 154.976 30.8084 159.929 45.2863C160.117 45.8347 159.824 46.4313 159.276 46.6189C158.728 46.8065 158.131 46.5141 157.943 45.9657C153.271 32.3068 140.405 22.537 125.246 22.537Z" fill="#007558"/>
<path fill-rule="evenodd" clip-rule="evenodd" d="M60.5925 63.6927C60.5925 63.1132 61.0624 62.6433 61.642 62.6433H74.2295C74.8091 62.6433 75.279 63.1132 75.279 63.6927C75.279 64.2723 74.8091 64.7422 74.2295 64.7422H61.642C61.0624 64.7422 60.5925 64.2723 60.5925 63.6927Z" fill="#007558"/>
<path fill-rule="evenodd" clip-rule="evenodd" d="M94.7888 75.4158C95.3072 75.1566 95.9376 75.3668 96.1968 75.8852L102.491 88.4727C102.75 88.9911 102.54 89.6215 102.021 89.8807C101.503 90.1399 100.872 89.9297 100.613 89.4113L94.3195 76.8238C94.0603 76.3054 94.2704 75.675 94.7888 75.4158Z" fill="#007558"/>
<path fill-rule="evenodd" clip-rule="evenodd" d="M43.2809 73.3697C43.7843 73.657 43.9594 74.298 43.6722 74.8013L35.3051 89.4621C35.0179 89.9655 34.3769 90.1407 33.8735 89.8534C33.3701 89.5661 33.195 88.9252 33.4822 88.4218L41.8493 73.761C42.1366 73.2576 42.7775 73.0825 43.2809 73.3697Z" fill="#007558"/>
<path fill-rule="evenodd" clip-rule="evenodd" d="M49.0545 55.931C45.0047 55.931 41.7369 59.2754 41.7369 63.5448C41.7369 66.4889 43.302 68.9589 45.5737 70.2584C46.6029 70.8367 47.7578 71.1585 49.0545 71.1585C53.0362 71.1585 56.3721 67.808 56.3721 63.5448C56.3721 59.2754 53.1043 55.931 49.0545 55.931ZM39.638 63.5448C39.638 58.1884 43.7747 53.8322 49.0545 53.8322C54.3343 53.8322 58.4709 58.1884 58.4709 63.5448C58.4709 68.9073 54.2543 73.2574 49.0545 73.2574C47.3908 73.2574 45.8811 72.8395 44.5416 72.086L44.5354 72.0825L44.5355 72.0825C41.6257 70.4198 39.638 67.2634 39.638 63.5448Z" fill="#007558"/>
<path fill-rule="evenodd" clip-rule="evenodd" d="M30.1732 94.212C26.1059 94.212 22.8556 97.5003 22.8556 101.678C22.8556 105.695 26.094 108.995 30.1732 108.995C31.4008 108.995 32.6289 108.671 33.654 108.095C35.9438 106.785 37.4907 104.38 37.4907 101.604C37.4907 98.8276 35.9438 96.422 33.654 95.1121C32.6248 94.5339 31.4699 94.212 30.1732 94.212ZM20.7567 101.678C20.7567 96.3774 24.9108 92.1132 30.1732 92.1132C31.8369 92.1132 33.3466 92.5311 34.6861 93.2845L34.6922 93.288L34.6922 93.288C37.5838 94.9404 39.5896 98.0131 39.5896 101.604C39.5896 105.194 37.5838 108.267 34.6922 109.919L34.6861 109.923L34.6861 109.923C33.3423 110.679 31.758 111.094 30.1732 111.094C24.9227 111.094 20.7567 106.842 20.7567 101.678Z" fill="#007558"/>
<path fill-rule="evenodd" clip-rule="evenodd" d="M67.9358 94.212C63.8944 94.212 60.6182 97.4882 60.6182 101.53C60.6182 105.571 63.8944 108.847 67.9358 108.847C71.9772 108.847 75.2534 105.571 75.2534 101.53C75.2534 97.4882 71.9772 94.212 67.9358 94.212ZM58.5194 101.53C58.5194 96.329 62.7353 92.1132 67.9358 92.1132C73.1364 92.1132 77.3523 96.329 77.3523 101.53C77.3523 106.73 73.1364 110.946 67.9358 110.946C62.7353 110.946 58.5194 106.73 58.5194 101.53Z" fill="#007558"/>
<path fill-rule="evenodd" clip-rule="evenodd" d="M86.8172 56.4492C82.8179 56.4492 79.4996 59.8176 79.4996 63.8408C79.4996 67.8581 82.738 71.1584 86.8172 71.1584C88.0449 71.1584 89.273 70.8341 90.2981 70.2583C92.5878 68.9484 94.1347 66.5428 94.1347 63.7668C94.1347 59.7496 90.8963 56.4492 86.8172 56.4492ZM77.4007 63.8408C77.4007 58.6825 81.6349 54.3503 86.8172 54.3503C92.0676 54.3503 96.2336 58.6025 96.2336 63.7668C96.2336 67.3573 94.2278 70.4301 91.3362 72.0824L91.3301 72.0859L91.33 72.0859C89.9863 72.8418 88.402 73.2573 86.8172 73.2573C81.5667 73.2573 77.4007 69.0051 77.4007 63.8408Z" fill="#007558"/>
<path fill-rule="evenodd" clip-rule="evenodd" d="M102.218 95.1121C99.9278 96.422 98.3809 98.8276 98.3809 101.604C98.3809 104.38 99.9278 106.785 102.218 108.095C103.247 108.673 104.402 108.995 105.698 108.995C109.704 108.995 113.016 105.695 113.016 101.604C113.016 97.5063 109.772 94.212 105.698 94.212C104.471 94.212 103.243 94.5363 102.218 95.1121ZM101.186 93.2845C102.529 92.5287 104.114 92.1132 105.698 92.1132C110.955 92.1132 115.115 96.3714 115.115 101.604C115.115 106.842 110.875 111.094 105.698 111.094C104.035 111.094 102.525 110.676 101.186 109.923L101.179 109.919L101.179 109.919C98.2878 108.267 96.282 105.194 96.282 101.604C96.282 98.0131 98.2878 94.9404 101.179 93.288L101.186 93.2845L101.186 93.2845Z" fill="#007558"/>
<path fill-rule="evenodd" clip-rule="evenodd" d="M41.7112 101.529C41.7112 100.95 42.1811 100.48 42.7606 100.48H55.3482C55.9278 100.48 56.3976 100.95 56.3976 101.529C56.3976 102.109 55.9278 102.579 55.3482 102.579H42.7606C42.1811 102.579 41.7112 102.109 41.7112 101.529Z" fill="#007558"/>
<path fill-rule="evenodd" clip-rule="evenodd" d="M79.6961 101.529C79.6961 100.95 80.1659 100.48 80.7455 100.48H93.1109C93.6905 100.48 94.1604 100.95 94.1604 101.529C94.1604 102.109 93.6905 102.579 93.1109 102.579H80.7455C80.1659 102.579 79.6961 102.109 79.6961 101.529Z" fill="#007558"/>
<path fill-rule="evenodd" clip-rule="evenodd" d="M54.828 73.3697C55.3314 73.0825 55.9724 73.2576 56.2596 73.761L64.6266 88.4218C64.9139 88.9252 64.7387 89.5661 64.2354 89.8534C63.732 90.1407 63.091 89.9655 62.8038 89.4621L54.4367 74.8013C54.1495 74.298 54.3246 73.657 54.828 73.3697Z" fill="#007558"/>
<path fill-rule="evenodd" clip-rule="evenodd" d="M80.8517 75.3578C81.4022 75.5391 81.7014 76.1324 81.5201 76.6829L77.3736 89.2704C77.1923 89.8209 76.599 90.1202 76.0485 89.9388C75.498 89.7575 75.1988 89.1642 75.3801 88.6137L79.5266 76.0262C79.7079 75.4757 80.3012 75.1764 80.8517 75.3578Z" fill="#007558"/>
<path fill-rule="evenodd" clip-rule="evenodd" d="M67.9358 113.068C68.5153 113.068 68.9852 113.537 68.9852 114.117V139.366C68.9852 139.946 68.5153 140.416 67.9358 140.416C67.3562 140.416 66.8863 139.946 66.8863 139.366V114.117C66.8863 113.537 67.3562 113.068 67.9358 113.068Z" fill="#007558"/>
<path fill-rule="evenodd" clip-rule="evenodd" d="M57.6436 29.7193C38.9064 29.7193 23.415 43.1219 20.1728 60.8459C20.0685 61.4161 19.5218 61.7937 18.9517 61.6894C18.3815 61.5851 18.0039 61.0384 18.1082 60.4683C21.53 41.7624 37.8776 27.6205 57.6436 27.6205C60.0076 27.6205 62.2875 27.8493 64.5541 28.2271C65.1258 28.3224 65.512 28.8631 65.4167 29.4348C65.3215 30.0065 64.7808 30.3927 64.2091 30.2974C62.033 29.9347 59.8703 29.7193 57.6436 29.7193Z" fill="#007558"/>
<path fill-rule="evenodd" clip-rule="evenodd" d="M17.5856 71.1584C18.1651 71.1584 18.635 71.6283 18.635 72.2079C18.635 75.2531 18.9252 78.198 19.6387 80.9806C19.7827 81.5421 19.4443 82.1139 18.8828 82.2578C18.3214 82.4018 17.7496 82.0634 17.6056 81.5019C16.8383 78.5092 16.5361 75.3824 16.5361 72.2079C16.5361 71.6283 17.006 71.1584 17.5856 71.1584Z" fill="#007558"/>
<path fill-rule="evenodd" clip-rule="evenodd" d="M45.9318 156.026C45.9318 155.447 46.4016 154.977 46.9812 154.977H51.1277C51.7073 154.977 52.1771 155.447 52.1771 156.026C52.1771 156.606 51.7073 157.076 51.1277 157.076H46.9812C46.4016 157.076 45.9318 156.606 45.9318 156.026Z" fill="#007558"/>
<path fill-rule="evenodd" clip-rule="evenodd" d="M3.9486 156.026C3.9486 155.447 4.41845 154.977 4.99803 154.977H13.365C13.9446 154.977 14.4145 155.447 14.4145 156.026C14.4145 156.606 13.9446 157.076 13.365 157.076H4.99803C4.41845 157.076 3.9486 156.606 3.9486 156.026Z" fill="#007558"/>
<path fill-rule="evenodd" clip-rule="evenodd" d="M121.383 156.026C121.383 155.447 121.853 154.977 122.432 154.977H135.094C135.674 154.977 136.143 155.447 136.143 156.026C136.143 156.606 135.674 157.076 135.094 157.076H122.432C121.853 157.076 121.383 156.606 121.383 156.026Z" fill="#007558"/>
<path fill-rule="evenodd" clip-rule="evenodd" d="M83.6945 156.026C83.6945 155.447 84.1643 154.977 84.7439 154.977H88.9644C89.544 154.977 90.0139 155.447 90.0139 156.026C90.0139 156.606 89.544 157.076 88.9644 157.076H84.7439C84.1643 157.076 83.6945 156.606 83.6945 156.026Z" fill="#007558"/>
<path fill-rule="evenodd" clip-rule="evenodd" d="M3.9486 126.779C3.9486 126.199 4.41845 125.729 4.99803 125.729H13.365C13.9446 125.729 14.4145 126.199 14.4145 126.779C14.4145 127.358 13.9446 127.828 13.365 127.828H4.99803C4.41845 127.828 3.9486 127.358 3.9486 126.779Z" fill="#007558"/>
<path fill-rule="evenodd" clip-rule="evenodd" d="M20.7567 126.779C20.7567 126.199 21.2266 125.729 21.8061 125.729H30.1732C30.7528 125.729 31.2226 126.199 31.2226 126.779C31.2226 127.358 30.7528 127.828 30.1732 127.828H21.8061C21.2266 127.828 20.7567 127.358 20.7567 126.779Z" fill="#007558"/>
<path opacity="0.4" fill-rule="evenodd" clip-rule="evenodd" d="M67.9358 152.906C66.2128 152.906 64.816 154.303 64.816 156.026C64.816 157.749 66.2128 159.146 67.9358 159.146C69.6588 159.146 71.0556 157.749 71.0556 156.026C71.0556 154.303 69.6588 152.906 67.9358 152.906ZM54.3216 156.026C54.3216 148.507 60.4169 142.412 67.9358 142.412C75.4548 142.412 81.5501 148.507 81.5501 156.026C81.5501 163.545 75.4548 169.64 67.9358 169.64C60.4169 169.64 54.3216 163.545 54.3216 156.026Z" fill="#007558"/>
<path opacity="0.4" fill-rule="evenodd" clip-rule="evenodd" d="M30.1732 152.906C28.4502 152.906 27.0534 154.303 27.0534 156.026C27.0534 157.749 28.4502 159.146 30.1732 159.146C31.8962 159.146 33.293 157.749 33.293 156.026C33.293 154.303 31.8962 152.906 30.1732 152.906ZM16.5589 156.026C16.5589 148.507 22.6542 142.412 30.1732 142.412C37.6921 142.412 43.7874 148.507 43.7874 156.026C43.7874 163.545 37.6921 169.64 30.1732 169.64C22.6542 169.64 16.5589 163.545 16.5589 156.026Z" fill="#007558"/>
<path opacity="0.4" fill-rule="evenodd" clip-rule="evenodd" d="M105.698 152.906C104.019 152.906 102.579 154.293 102.579 156.1C102.579 157.908 104.019 159.294 105.698 159.294C107.378 159.294 108.818 157.908 108.818 156.1C108.818 154.293 107.378 152.906 105.698 152.906ZM92.0842 156.1C92.0842 148.584 98.136 142.412 105.698 142.412C113.261 142.412 119.313 148.584 119.313 156.1C119.313 163.616 113.261 169.789 105.698 169.789C98.136 169.789 92.0842 163.616 92.0842 156.1Z" fill="#007558"/>
</svg>
