<svg width="103" height="72" viewBox="0 0 103 72" fill="none" xmlns="http://www.w3.org/2000/svg">
<rect width="103" height="72" rx="8" fill="#B7FFEC"/>
<path d="M29.9109 30.88V42H35.4949V40.528H31.7349V30.88H29.9109ZM47.7723 36.416C47.7723 33.088 45.2603 30.736 42.0923 30.736C38.9563 30.736 36.4123 33.088 36.4123 36.416C36.4123 39.76 38.9563 42.112 42.0923 42.112C45.2603 42.112 47.7723 39.76 47.7723 36.416ZM38.2843 36.416C38.2843 33.904 39.8843 32.336 42.0923 32.336C44.3003 32.336 45.9003 33.904 45.9003 36.416C45.9003 38.928 44.3003 40.528 42.0923 40.528C39.8843 40.528 38.2843 38.928 38.2843 36.416ZM54.6392 30.736C51.5032 30.736 48.9592 33.088 48.9592 36.416C48.9592 39.76 51.5032 42.096 54.6392 42.096C57.6312 42.096 59.8072 39.904 60.1432 37.328V35.904H54.0152V37.36H58.1912C57.9192 39.232 56.6552 40.448 54.6392 40.448C52.4312 40.448 50.8312 38.864 50.8312 36.416C50.8312 33.968 52.4312 32.4 54.6392 32.4C55.9672 32.4 57.0232 32.96 57.6152 34.08H59.8072C58.9592 31.904 56.9592 30.736 54.6392 30.736ZM72.6942 36.416C72.6942 33.088 70.1822 30.736 67.0142 30.736C63.8782 30.736 61.3342 33.088 61.3342 36.416C61.3342 39.76 63.8782 42.112 67.0142 42.112C70.1822 42.112 72.6942 39.76 72.6942 36.416ZM63.2062 36.416C63.2062 33.904 64.8062 32.336 67.0142 32.336C69.2222 32.336 70.8222 33.904 70.8222 36.416C70.8222 38.928 69.2222 40.528 67.0142 40.528C64.8062 40.528 63.2062 38.928 63.2062 36.416Z" fill="#050E0C"/>
</svg>
