<svg width="197" height="58" viewBox="0 0 197 58" fill="none" xmlns="http://www.w3.org/2000/svg">
<rect width="197" height="58" rx="8" fill="#B7FFEC"/>
<path d="M77.4109 23.88V35H82.9949V33.528H79.2349V23.88H77.4109ZM95.2723 29.416C95.2723 26.088 92.7603 23.736 89.5923 23.736C86.4563 23.736 83.9123 26.088 83.9123 29.416C83.9123 32.76 86.4563 35.112 89.5923 35.112C92.7603 35.112 95.2723 32.76 95.2723 29.416ZM85.7843 29.416C85.7843 26.904 87.3843 25.336 89.5923 25.336C91.8003 25.336 93.4003 26.904 93.4003 29.416C93.4003 31.928 91.8003 33.528 89.5923 33.528C87.3843 33.528 85.7843 31.928 85.7843 29.416ZM102.139 23.736C99.0032 23.736 96.4592 26.088 96.4592 29.416C96.4592 32.76 99.0032 35.096 102.139 35.096C105.131 35.096 107.307 32.904 107.643 30.328V28.904H101.515V30.36H105.691C105.419 32.232 104.155 33.448 102.139 33.448C99.9312 33.448 98.3312 31.864 98.3312 29.416C98.3312 26.968 99.9312 25.4 102.139 25.4C103.467 25.4 104.523 25.96 105.115 27.08H107.307C106.459 24.904 104.459 23.736 102.139 23.736ZM120.194 29.416C120.194 26.088 117.682 23.736 114.514 23.736C111.378 23.736 108.834 26.088 108.834 29.416C108.834 32.76 111.378 35.112 114.514 35.112C117.682 35.112 120.194 32.76 120.194 29.416ZM110.706 29.416C110.706 26.904 112.306 25.336 114.514 25.336C116.722 25.336 118.322 26.904 118.322 29.416C118.322 31.928 116.722 33.528 114.514 33.528C112.306 33.528 110.706 31.928 110.706 29.416Z" fill="#050E0C"/>
</svg>
