<svg width="465" height="25" viewBox="0 0 465 25" fill="none" xmlns="http://www.w3.org/2000/svg">
<path fill-rule="evenodd" clip-rule="evenodd" d="M409.11 3.64174C408.546 3.75738 407.766 3.88311 406.765 4.02125C405.163 4.24219 403.559 4.45571 401.951 4.6622C410.324 4.62658 418.697 4.59918 427.069 4.5807C447.19 4.53628 457.363 4.56146 461.156 4.62464C462.074 4.63993 462.691 4.65803 462.969 4.68538C463.01 4.68939 463.071 4.69614 463.138 4.70778C463.171 4.71347 463.227 4.72402 463.294 4.74213L463.296 4.74267C463.337 4.75399 463.503 4.79899 463.686 4.90972C463.793 4.98027 464.037 5.20194 464.161 5.36321C464.305 5.63662 464.41 6.28682 464.347 6.63562C464.242 6.89273 463.975 7.25767 463.843 7.37532C463.753 7.44132 463.594 7.53527 463.527 7.56749C463.325 7.6593 463.137 7.68646 463.129 7.68784C462.963 7.71625 462.727 7.73053 462.538 7.74079C461.652 7.78874 459.623 7.84076 456.933 7.89363C446.131 8.10589 424.159 8.34042 419.729 8.34042C405.036 8.34042 390.313 8.23577 375.571 8.08104C375.517 8.84251 374.97 9.30839 374.646 9.50206C374.279 9.72194 373.858 9.83247 373.524 9.89934C372.186 10.1671 369.821 10.1627 367.27 10.081C365.213 10.0152 362.957 9.89608 360.762 9.78021C357.26 9.59534 353.914 9.41867 351.776 9.4794C348.87 9.56195 346.088 9.63694 343.397 9.70531C332.728 10.304 322.06 10.7957 311.453 11.2846C302.096 11.7158 292.787 12.1449 283.566 12.6433C282.225 12.7158 280.884 12.7883 279.542 12.8607C242.524 15.3598 205.52 18.2565 168.544 21.3259C171.104 21.308 173.667 21.2946 176.237 21.2946H261.326C262.154 21.2946 262.826 21.9662 262.826 22.7946C262.826 23.6231 262.154 24.2946 261.326 24.2946H176.237C172.379 24.2946 168.509 24.3253 164.632 24.3561C156.85 24.4177 149.04 24.4796 141.254 24.2942C141.029 24.2889 140.818 24.2783 140.64 24.2573C140.553 24.2471 140.435 24.2301 140.31 24.1979L140.304 24.1962C140.237 24.1795 139.89 24.0925 139.587 23.8042C139.387 23.6137 139.12 23.2474 139.114 22.7193C139.108 22.2186 139.343 21.8717 139.484 21.7079C139.719 21.4338 140 21.3097 140.063 21.2818L140.068 21.2793C140.26 21.1938 140.469 21.1391 140.606 21.1057C141.206 20.9597 142.312 20.7893 143.533 20.6238C146.025 20.2858 149.352 19.9228 151.04 19.7805C162.438 18.8192 173.84 17.871 185.244 16.9423C157.623 17.5905 129.992 17.5364 102.47 16.1891C98.3993 15.9899 95.4353 15.724 93.4918 15.4095C92.5369 15.255 91.7387 15.0752 91.1601 14.8492C90.886 14.7421 90.5267 14.5747 90.228 14.2973C89.8966 13.9895 89.4755 13.3597 89.701 12.5397C89.849 12.0015 90.2141 11.6699 90.4561 11.4943C60.8114 11.9746 31.1669 12.4527 1.52256 12.8986C0.694231 12.9111 0.0126334 12.2497 0.0001732 11.4213C-0.0122869 10.593 0.649109 9.9114 1.47744 9.89894C33.2043 9.42169 64.9341 8.9075 96.666 8.39328C103.766 8.27822 110.866 8.16316 117.967 8.04851C142.139 6.21858 166.412 5.11485 190.736 4.49322C195.453 4.20945 200.976 3.95861 206.243 3.74945C215.77 3.37106 224.575 3.12519 226.54 3.07033C226.673 3.06663 226.774 3.0638 226.842 3.06185C270.739 1.81395 314.658 1.25038 358.559 0.908739C363.12 0.873248 370.253 0.690816 377.772 0.49853C383.434 0.35375 389.313 0.203383 394.478 0.105946C400.452 -0.00677496 405.502 -0.049343 408.07 0.0777587C408.702 0.109012 409.258 0.153479 409.654 0.225442C409.795 0.250917 410.149 0.315374 410.465 0.506638C410.596 0.585961 411.108 0.914943 411.215 1.61293C411.335 2.38843 410.859 2.87823 410.695 3.02297C410.504 3.19154 410.307 3.28534 410.207 3.32958C410.087 3.38276 409.966 3.42447 409.859 3.45755C409.644 3.52389 409.389 3.58445 409.11 3.64174ZM189.359 9.92556C165.607 10.2843 141.854 10.6632 118.102 11.0467C112.702 11.456 107.308 11.9016 101.918 12.3863C100.256 12.5357 98.779 12.6946 97.4997 12.8587C98.9231 12.9824 100.623 13.0951 102.617 13.1927C156.377 15.8243 210.575 13.5082 264.431 10.6649C240.517 10.829 216.549 10.8805 192.649 10.1123C191.811 10.0854 190.648 10.0191 189.359 9.92556ZM372.861 8.70308C372.86 8.70301 372.849 8.69383 372.832 8.67547C372.854 8.69393 372.863 8.70315 372.861 8.70308ZM345.929 4.71795C342.375 4.67042 338.82 4.62212 335.263 4.5738C328.961 4.48818 322.655 4.4025 316.346 4.32103C330.425 4.15059 344.504 4.01821 358.582 3.90865C363.157 3.87305 370.351 3.6892 377.905 3.49618C381.347 3.40823 384.863 3.31837 388.241 3.23976C382.565 3.83712 376.866 4.36051 371.151 4.82633C370.37 4.65141 369.514 4.51661 368.612 4.41114C366.614 4.17728 364.237 4.07201 361.638 4.05902C356.933 4.03548 351.411 4.31466 345.929 4.71795ZM409.155 3.18439C409.173 3.18822 409.181 3.19054 409.18 3.19072C409.18 3.19091 409.171 3.189 409.155 3.18439Z" fill="#0DD8A4"/>
</svg>
