<svg width="569" height="34" viewBox="0 0 569 34" fill="none" xmlns="http://www.w3.org/2000/svg">
<path d="M568.03 12.4297C567.609 11.9429 567.087 11.5482 566.497 11.2717C566.288 11.172 566.072 11.0856 565.851 11.013C565.484 10.8899 565.319 10.8529 565.078 10.7913L564.014 10.5819C563.368 10.471 562.748 10.3971 562.203 10.3355C561.037 10.2 559.922 10.0891 558.808 10.0029C554.361 9.67028 549.94 9.51012 545.607 9.41157C538.487 9.28017 531.372 9.33356 524.261 9.57172C524.315 8.80278 524.116 8.03695 523.693 7.38559C523.269 6.73422 522.642 6.23129 521.904 5.94998C521.575 5.80805 521.231 5.70071 520.878 5.62972C520.255 5.5141 519.624 5.43999 518.991 5.40795C517.965 5.40795 517.04 5.34637 516.128 5.34637C512.479 5.34637 508.957 5.45725 505.423 5.54348C498.367 5.74058 491.348 5.90072 484.355 5.8884H476.513C473.752 5.8884 471.003 5.8884 468.292 5.8884H467.646H461.641C461.121 4.89058 460.729 4.13911 460.437 3.59708C492.286 0.763747 457.599 -0.0985522 342.038 0.344926C315.599 0.443477 287.564 0.344918 260.567 0.22173L145.285 0H113.905L83.5006 0.172444H79.8015C78.5346 0.172444 77.4071 0.172453 76.0009 0.258685H75.6462H75.2408C75.0635 0.480424 75.7602 -0.320302 73.1252 1.21955C71.5796 2.69781 70.5915 4.91522 73.6193 7.66232C76.381 8.77101 74.5314 7.9949 75.2155 8.2536H75.4689H75.7222H76.0516H77.0651H78.9147L81.651 8.31522C81.3779 8.79818 81.1774 9.31675 81.0556 9.85507C80.9519 10.4048 80.9519 10.9684 81.0556 11.5181H70.0087C68.5519 11.5181 67.1203 11.5181 65.5621 11.6043L64.2953 11.6783L63.4465 11.7891C63.1847 11.8325 62.9264 11.8942 62.6737 11.9739C62.4964 11.6906 59.1899 15.2138 59.8107 15.9899C59.8107 16.1007 59.8107 16.187 59.8107 16.2978H35.4873L25.2385 16.1254L19.4744 15.9529C16.2946 15.8543 13.1401 15.7558 9.79567 15.7681C8.94689 15.7681 8.13611 15.7681 7.26199 15.8543C6.80592 15.8543 6.40053 15.8543 5.89379 15.9529C5.38706 16.0514 5.24772 16.0145 4.88033 16.0761L4.29758 16.1869L3.82885 16.2855C3.62984 16.3265 3.43486 16.3842 3.2461 16.4579C2.66195 16.6684 2.11168 16.9587 1.61188 17.3203C0.981564 17.7765 0.501687 18.4015 0.231002 19.1188C-0.947162 22.4326 2.76469 24.5761 2.76469 24.1203C3.09529 24.2398 3.44006 24.3185 3.79085 24.3543L4.33558 24.4159C5.46307 24.4775 6.19785 24.4159 7.03396 24.4159C10.2517 24.4159 13.3682 24.3174 16.5099 24.3297H21.2226H22.1727C26.9487 24.4898 31.37 24.613 35.2972 24.5884H48.0924C48.9285 24.5884 49.8153 24.5884 50.7907 24.5884H56.3775L89.9995 24.8348L126.877 25.0811H129.107H130.247H126.269H119.783H41.1754L37.3115 25.1428H36.8174H36.4501C33.435 24.8841 34.6638 28.321 38.5404 28.2717H38.8951C40.1619 28.3456 41.2134 28.358 42.3282 28.3703H48.8651L75.0001 28.5674L127.257 28.6783L198.277 28.5551C197.795 34.2956 201.038 32.4724 200.266 33.0514C200.447 33.1186 200.633 33.1721 200.823 33.2116L201.241 33.2978C201.646 33.3594 201.874 33.3717 202.128 33.3964L203.496 33.4826C205.232 33.5811 206.879 33.6304 208.563 33.6797C215.176 33.8645 221.561 33.9384 227.769 34H245.847C269.195 34 289.515 33.8768 306.3 33.6181C322.199 33.3841 334.918 33.0268 344.027 32.5833H378.067C404.557 32.4848 430.996 32.9159 457.511 33.2609L497.29 33.7167C510.566 33.8152 523.805 33.9384 537.221 33.5812C538.906 33.5812 540.59 33.4579 542.288 33.3594C544.125 33.2776 545.957 33.0967 547.773 32.8174C548.089 32.763 548.402 32.6931 548.711 32.608C548.926 32.559 549.137 32.4973 549.344 32.4232C549.718 32.2915 550.079 32.1265 550.421 31.9304C550.7 31.5732 552.22 31.4377 552.727 28.1362C552.397 25.1427 550.687 24.3543 550.497 24.2558C549.971 23.9279 549.393 23.6865 548.787 23.5413C548.226 23.3801 547.655 23.2566 547.077 23.1717C546.595 23.0978 546.127 23.0239 545.683 22.9746C543.872 22.7529 542.187 22.6297 540.489 22.5065C533.737 22.063 527.099 21.8659 520.435 21.6688H517.813C517.737 20.7572 517.648 19.9812 517.547 19.3283H530.126H544.34C549.053 19.3283 553.829 19.3898 558.694 19.242C559.808 19.242 560.923 19.1558 562.089 19.0819L563.926 18.9094C564.268 18.9094 564.622 18.8108 565.066 18.7246L565.471 18.6261C565.666 18.5862 565.857 18.5285 566.041 18.4536C566.495 18.2987 566.922 18.0786 567.308 17.8007C567.853 18.4782 570.349 14.5855 568.03 12.4297Z" fill="#0DD8A4"/>
</svg>
