<svg width="182" height="182" viewBox="0 0 182 182" fill="none" xmlns="http://www.w3.org/2000/svg">
<path opacity="0.1" d="M90.6302 159.071C128.429 159.071 159.071 128.327 159.071 90.4033C159.071 52.4793 128.429 21.7358 90.6302 21.7358C52.8317 21.7358 22.1899 52.4793 22.1899 90.4033C22.1899 128.327 52.8317 159.071 90.6302 159.071Z" fill="#007558"/>
<path opacity="0.1" fill-rule="evenodd" clip-rule="evenodd" d="M90.4032 84.9915C87.4291 84.9915 85.0672 87.3735 85.0672 90.2518C85.0672 93.13 87.4291 95.512 90.4032 95.512C93.3771 95.512 95.7391 93.13 95.7391 90.2518C95.7391 87.3735 93.3771 84.9915 90.4032 84.9915ZM78.629 90.2518C78.629 83.764 83.9275 78.5533 90.4032 78.5533C96.8788 78.5533 102.177 83.764 102.177 90.2518C102.177 96.7395 96.8788 101.95 90.4032 101.95C83.9275 101.95 78.629 96.7395 78.629 90.2518Z" fill="#007558"/>
<path opacity="0.4" fill-rule="evenodd" clip-rule="evenodd" d="M90.6302 26.798C55.648 26.798 27.3279 55.0733 27.3279 89.8732H16.5977C16.5977 49.1163 49.7527 16.0677 90.6302 16.0677V26.798Z" fill="#007558"/>
<path opacity="0.4" fill-rule="evenodd" clip-rule="evenodd" d="M90.6302 152.948C125.612 152.948 153.933 124.673 153.933 89.8733H164.663C164.663 130.63 131.508 163.679 90.6302 163.679V152.948Z" fill="#007558"/>
<path fill-rule="evenodd" clip-rule="evenodd" d="M120.459 44.234C117.498 44.234 115.097 46.6348 115.097 49.5962C115.097 52.5577 117.498 54.9584 120.459 54.9584C123.421 54.9584 125.821 52.5577 125.821 49.5962C125.821 46.6348 123.421 44.234 120.459 44.234ZM112.951 49.5962C112.951 45.4496 116.313 42.088 120.459 42.088C124.606 42.088 127.967 45.4496 127.967 49.5962C127.967 53.7429 124.606 57.1045 120.459 57.1045C116.313 57.1045 112.951 53.7429 112.951 49.5962Z" fill="#007558"/>
<path fill-rule="evenodd" clip-rule="evenodd" d="M118.264 61.4198C114.162 61.4198 110.782 64.8005 110.782 68.9019V86.6176C110.782 88.0831 111.981 89.33 113.494 89.33H127.349C128.849 89.33 130.072 88.0924 130.137 86.5961V68.9019C130.137 64.8005 126.756 61.4198 122.655 61.4198H118.264ZM108.636 68.9019C108.636 63.6153 112.977 59.2738 118.264 59.2738H122.655C127.941 59.2738 132.283 63.6153 132.283 68.9019V86.6176C132.283 86.6308 132.283 86.6441 132.282 86.6573C132.186 89.2411 130.082 91.476 127.349 91.476H113.494C110.768 91.476 108.636 89.2403 108.636 86.6176V68.9019Z" fill="#007558"/>
<path fill-rule="evenodd" clip-rule="evenodd" d="M60.3468 91.4761C57.3853 91.4761 54.9846 93.8768 54.9846 96.8383C54.9846 99.7998 57.3853 102.2 60.3468 102.2C63.3082 102.2 65.709 99.7998 65.709 96.8383C65.709 93.8768 63.3082 91.4761 60.3468 91.4761ZM52.8386 96.8383C52.8386 92.6916 56.2001 89.3301 60.3468 89.3301C64.4935 89.3301 67.855 92.6916 67.855 96.8383C67.855 100.985 64.4935 104.347 60.3468 104.347C56.2001 104.347 52.8386 100.985 52.8386 96.8383Z" fill="#007558"/>
<path fill-rule="evenodd" clip-rule="evenodd" d="M58.1512 108.662C54.0499 108.662 50.6693 112.043 50.6693 116.144V133.86C50.6693 135.325 51.8683 136.572 53.3817 136.572H67.2362C68.7773 136.572 70.0244 135.298 70.0244 133.86V116.144C70.0244 112.043 66.6437 108.662 62.5423 108.662H58.1512ZM48.5232 116.144C48.5232 110.858 52.8647 106.516 58.1512 106.516H62.5423C67.8289 106.516 72.1704 110.858 72.1704 116.144V133.86C72.1704 136.51 69.9348 138.718 67.2362 138.718H53.3817C50.6553 138.718 48.5232 136.483 48.5232 133.86V116.144Z" fill="#007558"/>
<path fill-rule="evenodd" clip-rule="evenodd" d="M4.54991 89.3301C5.14252 89.3301 5.62293 89.8105 5.62293 90.4031C5.62293 137.204 43.6024 175.183 90.4032 175.183C90.9958 175.183 91.4762 175.664 91.4762 176.256C91.4762 176.849 90.9958 177.329 90.4032 177.329C42.4171 177.329 3.4769 138.389 3.4769 90.4031C3.4769 89.8105 3.9573 89.3301 4.54991 89.3301Z" fill="#007558"/>
<path fill-rule="evenodd" clip-rule="evenodd" d="M89.3301 4.54994C89.3301 3.95733 89.8105 3.47693 90.4032 3.47693C138.389 3.47693 177.329 42.4172 177.329 90.4032C177.329 90.9958 176.849 91.4762 176.256 91.4762C175.664 91.4762 175.183 90.9958 175.183 90.4032C175.183 43.6024 137.204 5.62296 90.4032 5.62296C89.8105 5.62296 89.3301 5.14255 89.3301 4.54994Z" fill="#007558"/>
</svg>
